<svg version="1.1" id="Layer_1" xmlns="http://www.w3.org/2000/svg" xmlns:xlink="http://www.w3.org/1999/xlink" x="0px" y="0px"
	 width="100%" viewBox="0 0 1280 431" enable-background="new 0 0 1280 431" xml:space="preserve">
<path fill="#000000" opacity="1.000000" stroke="none" 
	d="
M803.000000,432.000000 
	C535.333374,432.000000 268.166718,432.000000 1.000072,432.000000 
	C1.000048,288.333374 1.000048,144.666763 1.000024,1.000110 
	C427.666595,1.000074 854.333191,1.000074 1280.999756,1.000037 
	C1280.999878,144.666550 1280.999878,288.333099 1281.000000,431.999817 
	C1121.833374,432.000000 962.666687,432.000000 803.000000,432.000000 
M200.581955,23.975212 
	C197.152451,24.316084 193.713226,25.022369 190.295212,24.931511 
	C178.529358,24.618744 167.300781,27.608671 156.111374,30.473812 
	C134.916397,35.900970 115.266975,44.964020 97.198486,57.300922 
	C75.512428,72.107857 57.231716,90.331055 42.893929,112.405716 
	C33.495911,126.875038 25.924570,142.130051 20.486145,158.625626 
	C15.615524,173.398956 11.936693,188.396790 11.184284,203.767883 
	C9.970114,228.572357 10.898789,253.263184 18.793211,277.327179 
	C23.643187,292.110992 29.198708,306.461426 37.262775,319.746521 
	C48.378025,338.058258 61.589981,354.576294 77.937065,368.669281 
	C90.124352,379.176056 102.959915,388.670837 117.392433,395.564575 
	C128.631439,400.932861 140.491592,405.159912 152.369461,408.981018 
	C161.879242,412.040283 171.725281,414.762177 181.611969,415.768738 
	C194.932739,417.124969 208.445770,417.147705 221.857010,416.855804 
	C230.129471,416.675781 238.522873,415.509979 246.584671,413.610077 
	C261.494690,410.096252 276.140747,405.867096 290.191620,399.253296 
	C309.544495,390.143829 326.907471,378.424377 342.473633,363.960449 
	C353.392242,353.814972 362.649170,342.259613 371.207336,329.990387 
	C379.313019,318.369781 385.652924,305.954376 390.889282,292.956390 
	C395.849487,280.643829 399.920837,268.014160 401.230865,254.634521 
	C402.248352,244.242599 404.846832,233.886002 404.740936,223.534195 
	C404.612640,210.999527 402.858521,198.410477 400.900696,185.987930 
	C399.321320,175.966721 397.104492,165.921539 393.902985,156.309158 
	C388.898163,141.282394 382.351379,126.818123 372.959869,113.908539 
	C366.272125,104.715538 359.711975,95.346565 352.176910,86.872368 
	C340.571198,73.820244 326.934418,62.997211 312.167816,53.599857 
	C298.444305,44.866276 283.800812,38.042328 268.391418,33.075935 
	C246.710190,26.088158 224.355911,23.212841 200.581955,23.975212 
M875.395630,250.907928 
	C867.780090,250.494629 863.583130,256.404510 858.085571,260.668182 
	C856.921082,257.402222 856.692749,253.417374 854.649841,251.937485 
	C852.439331,250.336166 848.535400,251.072525 845.257080,250.779221 
	C845.257080,276.570312 845.257080,301.625916 845.257080,326.718689 
	C849.603760,326.718689 853.665588,326.718689 857.649048,326.718689 
	C857.813904,326.111603 857.969971,325.804138 857.970581,325.496338 
	C857.996033,312.171844 857.722046,298.838287 858.144836,285.526764 
	C858.348450,279.116821 859.359619,272.652649 863.895752,267.356689 
	C868.338440,262.169922 875.152954,260.445984 882.681152,263.036499 
	C887.562866,264.716400 890.979187,270.331573 890.978699,276.667419 
	C890.977539,291.824585 890.978271,306.981720 890.978210,322.138885 
	C890.978210,323.719238 890.978210,325.299591 890.978210,326.801697 
	C896.006958,326.801697 900.287415,326.801697 905.021667,326.801697 
	C905.021667,312.310181 904.680908,298.020630 905.206360,283.762970 
	C905.390503,278.766113 906.948730,273.467712 909.209229,268.976196 
	C913.343262,260.761871 927.483276,258.946503 933.209595,266.149323 
	C936.067200,269.743805 937.551086,275.241852 937.770752,279.966583 
	C938.373657,292.930389 937.978516,305.940613 937.978394,318.932465 
	C937.978394,321.539032 937.978394,324.145569 937.978394,326.693665 
	C942.645996,326.693665 946.706604,326.693665 951.016663,326.693665 
	C951.016663,307.731934 951.387634,289.085754 950.837769,270.466766 
	C950.611389,262.800110 946.435059,256.399841 939.272156,252.752747 
	C931.564453,248.828247 923.327271,248.902847 915.613403,252.048477 
	C910.463074,254.148712 906.061523,258.085052 901.240784,261.255005 
	C896.180664,251.383423 886.942810,249.085297 875.395630,250.907928 
M739.399170,226.003830 
	C736.312195,226.003830 733.225220,226.003830 729.714600,226.003830 
	C729.714600,237.875854 729.714600,249.045883 729.714600,260.401825 
	C723.713440,253.273651 716.210449,250.262604 707.617249,250.029968 
	C694.424866,249.672836 684.852783,255.984528 678.988647,267.456635 
	C671.528442,282.050812 671.935181,297.003906 678.989319,311.654633 
	C683.105286,320.203186 690.336426,326.257507 699.378357,327.701691 
	C711.318970,329.608917 723.201965,328.329102 730.738098,315.902222 
	C732.262634,327.436493 734.233521,328.725677 745.950256,326.404297 
	C745.308105,319.574585 744.170715,312.738129 744.110168,305.892120 
	C743.887878,280.739868 744.007629,255.584396 744.046387,230.430206 
	C744.050415,227.796844 744.330688,225.197525 739.399170,226.003830 
M830.897644,292.287170 
	C830.605530,288.201050 830.590576,284.072144 829.968140,280.036987 
	C828.274170,269.055328 822.696594,260.354004 813.145752,254.710541 
	C805.650635,250.281799 797.529602,249.776291 788.688782,250.728943 
	C775.776733,252.120255 764.240845,263.180206 761.286926,273.884766 
	C759.317993,281.019684 758.470764,288.922211 759.252808,296.253876 
	C760.516479,308.101440 766.220154,317.856903 777.137756,324.123688 
	C785.888855,329.146912 795.438660,328.999817 804.520264,327.672028 
	C813.579895,326.347473 821.679565,321.617950 825.954529,312.685394 
	C823.409546,311.886902 821.298584,310.948578 819.095276,310.609039 
	C816.782043,310.252563 813.681641,309.495850 812.137390,310.603668 
	C805.172913,315.600128 798.208313,317.480927 789.498596,315.365936 
	C778.002319,312.574249 774.124146,303.051422 773.242065,292.917236 
	C792.250916,292.917236 811.218933,292.917236 830.897644,292.287170 
M440.983643,311.941772 
	C443.693298,315.829285 445.829407,320.345764 449.244385,323.459808 
	C454.636993,328.377258 461.759064,328.035950 468.733673,328.138519 
	C478.263947,328.278625 485.857422,324.986084 491.730469,317.502686 
	C492.675140,320.655334 493.592010,323.715302 494.501923,326.751892 
	C498.649506,326.751892 502.740631,326.751892 506.634674,326.751892 
	C506.079285,321.653656 505.332123,316.811035 505.062836,311.941956 
	C504.279846,297.786041 504.140289,283.577423 502.827698,269.475220 
	C502.187531,262.597687 498.615753,256.876678 491.502411,253.660629 
	C483.591614,250.084030 475.779846,249.610138 467.329468,250.876282 
	C456.295319,252.529510 448.920471,258.079956 445.115784,268.574524 
	C449.383698,269.970245 453.563904,271.337250 457.682953,272.684296 
	C462.814240,262.647888 471.019470,258.384552 479.577820,261.230988 
	C487.183685,263.760651 492.407806,271.624054 490.681610,278.783234 
	C479.249298,281.362854 468.043396,283.321228 457.233795,286.590210 
	C452.403900,288.050842 448.020355,291.737671 444.063660,295.145081 
	C439.135986,299.388580 441.430817,305.612457 440.983643,311.941772 
M642.568604,267.104065 
	C643.820923,271.196655 645.073242,275.289246 646.084595,278.594299 
	C633.586792,281.506622 621.430908,283.326691 609.986084,287.230957 
	C590.187134,293.985107 592.036987,314.596039 602.180176,322.623505 
	C610.860413,329.493195 621.213867,329.465546 631.171082,327.062225 
	C636.743347,325.717346 641.675964,321.722565 646.630859,319.064453 
	C647.368408,321.147095 648.379944,324.003296 649.332397,326.692627 
	C653.346069,326.692627 657.098267,326.692627 661.223938,326.692627 
	C660.464844,319.332703 659.464294,312.346924 659.085510,305.327667 
	C658.505920,294.585785 658.665833,283.799713 657.939148,273.071198 
	C657.137329,261.233643 651.614075,254.839264 641.832581,251.866165 
	C633.926086,249.462982 625.943237,249.143234 618.166992,251.458710 
	C609.490112,254.042374 602.642944,259.139557 600.012878,268.534729 
	C604.381226,270.084503 608.439636,271.524384 612.765137,273.058960 
	C613.588318,265.947601 618.435669,262.287598 624.336548,261.251343 
	C630.674194,260.138428 637.530823,260.158356 642.568604,267.104065 
M1023.026123,261.592407 
	C1024.173340,258.237549 1025.320435,254.882660 1026.654419,250.981552 
	C1021.702698,250.981552 1018.037048,250.810547 1014.404114,251.080215 
	C1013.232971,251.167160 1011.446289,252.187637 1011.131653,253.164474 
	C1007.918457,263.140839 1005.050476,273.227905 1001.882935,283.219604 
	C999.403076,291.042023 996.637146,298.773712 993.796021,307.141571 
	C987.578796,287.825684 981.632202,269.350555 975.793335,251.210068 
	C970.465515,251.210068 965.858154,251.210068 960.793762,251.210068 
	C964.917847,262.574615 968.904480,273.592255 972.914307,284.601501 
	C977.502014,297.197418 982.266663,309.731659 986.654968,322.396484 
	C989.619080,330.951050 982.941772,340.476318 974.371460,339.039856 
	C972.017883,338.645355 969.542053,338.979889 967.367676,338.979889 
	C967.367676,343.450623 967.367676,347.179840 967.367676,351.020782 
	C971.418518,351.020782 975.110352,351.319489 978.736206,350.957275 
	C985.822693,350.249359 992.447571,347.907990 995.469604,340.910492 
	C999.293701,332.055695 1002.468384,322.906097 1005.624817,313.780487 
	C1011.534485,296.695190 1017.229370,279.535583 1023.026123,261.592407 
M526.973755,264.501373 
	C519.720825,274.958527 517.810730,286.377014 520.279602,298.809998 
	C521.674805,305.836029 524.508972,312.033295 529.006042,317.497009 
	C538.445129,328.964935 557.598267,331.382141 570.902832,324.610016 
	C576.928650,321.542847 581.413696,316.967529 584.988037,311.081726 
	C581.457764,309.643829 578.714539,308.137238 575.782288,307.499664 
	C574.359558,307.190308 572.019104,308.034302 571.062439,309.171051 
	C566.488342,314.605804 560.134644,317.361115 553.817749,316.603333 
	C545.475403,315.602539 538.475952,310.991943 536.016357,301.916443 
	C534.026123,294.573029 533.227539,287.145355 535.052185,279.648956 
	C536.882202,272.130615 540.838623,266.012604 548.358093,263.394440 
	C557.440186,260.232178 565.754883,262.364899 572.739441,272.130463 
	C576.776306,270.471619 580.884827,268.783295 584.993408,267.095001 
	C585.591431,266.259460 586.189392,265.423920 586.787415,264.588379 
	C582.924500,261.729797 579.124329,258.781525 575.186157,256.030640 
	C565.848206,249.507812 555.600708,248.604919 544.878174,251.579651 
	C537.622681,253.592514 531.486572,257.322845 526.973755,264.501373 
z"/>
<path fill="#F27677" opacity="1.000000" stroke="none" 
	d="
M201.072144,23.975235 
	C224.355911,23.212841 246.710190,26.088158 268.391418,33.075935 
	C283.800812,38.042328 298.444305,44.866276 312.167816,53.599857 
	C326.934418,62.997211 340.571198,73.820244 352.176910,86.872368 
	C359.711975,95.346565 366.272125,104.715538 372.959869,113.908539 
	C382.351379,126.818123 388.898163,141.282394 393.902985,156.309158 
	C397.104492,165.921539 399.321320,175.966721 400.900696,185.987930 
	C402.858521,198.410477 404.612640,210.999527 404.740936,223.534195 
	C404.846832,233.886002 402.248352,244.242599 401.230865,254.634521 
	C399.920837,268.014160 395.849487,280.643829 390.889282,292.956390 
	C385.652924,305.954376 379.313019,318.369781 371.207336,329.990387 
	C362.649170,342.259613 353.392242,353.814972 342.473633,363.960449 
	C326.907471,378.424377 309.544495,390.143829 290.191620,399.253296 
	C276.140747,405.867096 261.494690,410.096252 246.584671,413.610077 
	C238.522873,415.509979 230.129471,416.675781 221.857010,416.855804 
	C208.445770,417.147705 194.932739,417.124969 181.611969,415.768738 
	C171.725281,414.762177 161.879242,412.040283 152.369461,408.981018 
	C140.491592,405.159912 128.631439,400.932861 117.392433,395.564575 
	C102.959915,388.670837 90.124352,379.176056 77.937065,368.669281 
	C61.589981,354.576294 48.378025,338.058258 37.262775,319.746521 
	C29.198708,306.461426 23.643187,292.110992 18.793211,277.327179 
	C10.898789,253.263184 9.970114,228.572357 11.184284,203.767883 
	C11.936693,188.396790 15.615524,173.398956 20.486145,158.625626 
	C25.924570,142.130051 33.495911,126.875038 42.893929,112.405716 
	C57.231716,90.331055 75.512428,72.107857 97.198486,57.300922 
	C115.266975,44.964020 134.916397,35.900970 156.111374,30.473812 
	C167.300781,27.608671 178.529358,24.618744 190.295212,24.931511 
	C193.713226,25.022369 197.152451,24.316084 201.072144,23.975235 
M257.532959,95.314651 
	C258.394623,98.886909 259.177216,102.481010 260.155060,106.021164 
	C260.572815,107.533493 262.035278,108.988564 261.915283,110.373672 
	C261.586884,114.163666 260.922485,117.970886 259.929077,121.646393 
	C258.310486,127.634926 251.986618,129.905701 246.849304,126.358696 
	C243.845383,124.284653 241.033585,121.881775 238.395660,119.355049 
	C237.443695,118.443222 236.801849,116.742981 236.787231,115.394188 
	C236.705475,107.847336 231.178787,102.443184 223.700638,102.855904 
	C216.484421,103.254181 212.038055,108.990692 212.937103,116.742561 
	C213.695999,123.285789 219.995605,127.352409 227.268951,126.259621 
	C228.701035,126.044449 230.572708,126.461739 231.748352,127.288673 
	C234.597672,129.292831 237.284210,131.576614 239.805222,133.989212 
	C244.933395,138.896835 243.672287,145.623749 237.127472,148.468689 
	C234.232468,149.727097 231.274155,150.953827 228.223007,151.693405 
	C226.576157,152.092590 224.434570,151.915604 222.926682,151.169235 
	C216.465256,147.971008 209.149521,149.889267 206.064316,155.886520 
	C202.895096,162.047089 205.429886,169.546143 211.638351,172.377029 
	C217.908661,175.236115 224.857483,172.451035 227.771378,165.910950 
	C229.996078,160.917694 241.973038,155.890823 246.910126,158.098969 
	C248.484894,158.803314 250.031998,160.125748 250.981995,161.567230 
	C253.918320,166.022659 251.025772,178.653183 246.586136,181.685104 
	C240.916885,185.556702 239.484116,192.804138 243.284714,198.384628 
	C247.083038,203.961807 254.503052,205.338959 260.004425,201.487793 
	C265.728485,197.480743 267.143280,189.772293 262.593842,184.413605 
	C260.575958,182.036774 260.164734,179.974182 260.828888,177.217911 
	C261.331848,175.130600 261.627136,172.987854 261.921967,170.856918 
	C262.458191,166.980911 263.919373,163.776337 267.984955,162.534515 
	C272.247864,161.232422 275.367401,163.169937 278.098328,166.233627 
	C294.007660,184.081390 302.131042,204.717224 300.189087,228.811554 
	C297.404938,263.355286 279.251373,286.788025 247.872040,300.534943 
	C244.996109,301.794861 242.737717,302.073395 239.759048,299.825470 
	C234.384033,295.769073 226.867798,297.819763 223.242157,303.555664 
	C219.725525,309.119110 221.614594,316.738129 227.344116,320.099487 
	C233.172440,323.518829 240.154434,321.510406 243.933853,315.894226 
	C245.441330,313.654175 247.827957,311.452972 250.302139,310.498413 
	C293.859528,293.694092 318.689758,248.196930 308.566711,202.985504 
	C304.659637,185.535873 296.466156,170.270126 283.649109,157.661743 
	C280.262878,154.330612 278.479095,150.705521 280.424042,146.044647 
	C282.486237,141.102859 295.031525,136.603409 299.873291,138.977005 
	C306.581116,142.265396 313.808075,139.863846 316.651947,133.401337 
	C319.347931,127.274948 316.538116,120.167770 310.389587,117.561333 
	C303.894379,114.807930 296.938904,118.022156 294.185059,124.964005 
	C293.737915,126.091095 293.122406,127.612892 292.187744,128.004364 
	C288.360138,129.607483 284.465637,131.239456 280.434082,132.123795 
	C274.043243,133.525650 269.360168,128.794937 270.269867,122.265877 
	C270.704803,119.144135 271.101410,115.984711 271.956238,112.967255 
	C272.393799,111.422897 273.514984,109.738708 274.822571,108.832764 
	C280.156433,105.137253 282.220428,100.484848 280.657501,94.724976 
	C279.455322,90.294762 274.803345,86.529320 270.011810,86.108063 
	C264.935486,85.661774 260.333496,88.868088 257.532959,95.314651 
M119.083435,167.598648 
	C104.297600,191.369568 100.599869,216.796417 108.041107,243.742661 
	C112.342407,259.318573 120.542770,272.732269 131.987747,284.096497 
	C135.411530,287.496155 136.283630,291.237885 134.378204,295.415741 
	C132.150696,300.299835 119.710831,304.217560 114.909088,301.830963 
	C108.858803,298.823730 101.681763,301.140320 98.707901,307.060303 
	C95.649826,313.147919 98.335434,320.736115 104.489265,323.395508 
	C110.579315,326.027344 117.808891,323.213928 120.422745,317.194946 
	C122.728218,311.886047 134.535660,306.906433 139.759949,309.180450 
	C141.076981,309.753754 142.355286,310.776306 143.242859,311.911743 
	C146.580750,316.181824 144.180862,329.532471 139.642426,332.614532 
	C133.508011,336.780396 132.066132,344.281799 136.286850,350.071991 
	C140.006622,355.174988 147.527145,356.317902 152.779465,352.578430 
	C158.690125,348.370209 159.542557,341.111847 154.981827,334.998596 
	C154.060593,333.763763 152.993057,332.100464 153.110901,330.730927 
	C153.436966,326.941559 154.095154,323.132507 155.095886,319.460388 
	C156.709427,313.539520 163.085556,311.216583 168.203613,314.627167 
	C170.685425,316.281036 173.113037,318.171295 175.086670,320.381775 
	C176.562668,322.034882 177.949310,324.291992 178.200546,326.418976 
	C179.053513,333.640320 184.912949,339.126465 191.617249,338.389984 
	C198.318436,337.653839 202.831573,331.954895 202.184906,325.045654 
	C201.517181,317.911713 195.725693,313.774750 187.909927,314.633240 
	C186.408508,314.798157 184.495483,314.633698 183.335190,313.819305 
	C180.350433,311.724243 177.556229,309.309937 174.917786,306.781219 
	C171.586075,303.588104 171.255188,299.753784 173.656998,295.884613 
	C176.436737,291.406586 188.402969,288.236328 193.269608,290.172943 
	C195.478302,291.051910 198.146973,291.656128 200.432037,291.290741 
	C206.403427,290.335968 210.582764,285.038971 210.501297,279.365082 
	C210.425812,274.109253 206.471558,269.061462 201.602509,268.005463 
	C194.983353,266.569885 189.773117,269.328888 187.092789,275.630798 
	C186.594101,276.803284 186.161621,278.554230 185.255829,278.909576 
	C180.942932,280.601471 176.555145,282.341278 172.030685,283.147766 
	C169.965942,283.515808 167.026688,282.337311 165.350357,280.870331 
	C161.006927,277.069366 162.759079,262.997681 167.634857,259.836761 
	C174.086655,255.654129 175.786560,248.454712 171.701187,242.615173 
	C167.810654,237.054092 160.459122,235.721191 154.958191,239.579498 
	C149.150604,243.652924 148.361786,251.053223 152.669754,257.227356 
	C153.807480,258.857971 154.070740,261.317627 154.137207,263.415527 
	C154.204376,265.535126 153.417816,267.667145 153.202667,269.813477 
	C152.787201,273.957947 151.141998,277.190399 146.982407,278.608673 
	C142.848297,280.018188 139.972580,277.871887 137.353592,275.045654 
	C120.889847,257.279114 112.920525,236.329300 114.861732,212.137924 
	C117.629936,177.640472 135.845657,154.143433 167.331512,140.502960 
	C170.066177,139.318237 172.262939,138.957413 175.020279,141.070847 
	C178.893005,144.039169 183.498840,143.810684 187.745560,141.499069 
	C191.964340,139.202652 194.405396,133.628906 193.490128,129.149094 
	C192.470749,124.159744 188.490097,120.283775 183.362701,119.288078 
	C178.901169,118.421677 173.842056,121.079315 171.086639,125.303650 
	C169.915985,127.098381 168.349228,129.200546 166.489594,129.892990 
	C146.799728,137.224655 131.095154,149.497635 119.083435,167.598648 
z"/>
<path fill="#F47778" opacity="1.000000" stroke="none" 
	d="
M875.746582,250.639923 
	C886.942810,249.085297 896.180664,251.383423 901.240784,261.255005 
	C906.061523,258.085052 910.463074,254.148712 915.613403,252.048477 
	C923.327271,248.902847 931.564453,248.828247 939.272156,252.752747 
	C946.435059,256.399841 950.611389,262.800110 950.837769,270.466766 
	C951.387634,289.085754 951.016663,307.731934 951.016663,326.693665 
	C946.706604,326.693665 942.645996,326.693665 937.978394,326.693665 
	C937.978394,324.145569 937.978394,321.539032 937.978394,318.932465 
	C937.978516,305.940613 938.373657,292.930389 937.770752,279.966583 
	C937.551086,275.241852 936.067200,269.743805 933.209595,266.149323 
	C927.483276,258.946503 913.343262,260.761871 909.209229,268.976196 
	C906.948730,273.467712 905.390503,278.766113 905.206360,283.762970 
	C904.680908,298.020630 905.021667,312.310181 905.021667,326.801697 
	C900.287415,326.801697 896.006958,326.801697 890.978210,326.801697 
	C890.978210,325.299591 890.978210,323.719238 890.978210,322.138885 
	C890.978271,306.981720 890.977539,291.824585 890.978699,276.667419 
	C890.979187,270.331573 887.562866,264.716400 882.681152,263.036499 
	C875.152954,260.445984 868.338440,262.169922 863.895752,267.356689 
	C859.359619,272.652649 858.348450,279.116821 858.144836,285.526764 
	C857.722046,298.838287 857.996033,312.171844 857.970581,325.496338 
	C857.969971,325.804138 857.813904,326.111603 857.649048,326.718689 
	C853.665588,326.718689 849.603760,326.718689 845.257080,326.718689 
	C845.257080,301.625916 845.257080,276.570312 845.257080,250.779221 
	C848.535400,251.072525 852.439331,250.336166 854.649841,251.937485 
	C856.692749,253.417374 856.921082,257.402222 858.085571,260.668182 
	C863.583130,256.404510 867.780090,250.494629 875.746582,250.639923 
z"/>
<path fill="#F47778" opacity="1.000000" stroke="none" 
	d="
M739.876953,226.004196 
	C744.330688,225.197525 744.050415,227.796844 744.046387,230.430206 
	C744.007629,255.584396 743.887878,280.739868 744.110168,305.892120 
	C744.170715,312.738129 745.308105,319.574585 745.950256,326.404297 
	C734.233521,328.725677 732.262634,327.436493 730.738098,315.902222 
	C723.201965,328.329102 711.318970,329.608917 699.378357,327.701691 
	C690.336426,326.257507 683.105286,320.203186 678.989319,311.654633 
	C671.935181,297.003906 671.528442,282.050812 678.988647,267.456635 
	C684.852783,255.984528 694.424866,249.672836 707.617249,250.029968 
	C716.210449,250.262604 723.713440,253.273651 729.714600,260.401825 
	C729.714600,249.045883 729.714600,237.875854 729.714600,226.003830 
	C733.225220,226.003830 736.312195,226.003830 739.876953,226.004196 
M694.420837,309.894226 
	C705.187866,321.776398 723.385925,317.955994 728.245789,303.137756 
	C730.730286,295.562286 732.657410,287.659790 729.269897,279.770142 
	C727.311768,275.209564 726.012024,269.580566 722.549866,266.600006 
	C712.473206,257.924927 695.712280,260.771179 691.153687,275.295227 
	C687.547302,286.785492 687.742615,298.383636 694.420837,309.894226 
z"/>
<path fill="#F47778" opacity="1.000000" stroke="none" 
	d="
M830.542297,292.602203 
	C811.218933,292.917236 792.250916,292.917236 773.242065,292.917236 
	C774.124146,303.051422 778.002319,312.574249 789.498596,315.365936 
	C798.208313,317.480927 805.172913,315.600128 812.137390,310.603668 
	C813.681641,309.495850 816.782043,310.252563 819.095276,310.609039 
	C821.298584,310.948578 823.409546,311.886902 825.954529,312.685394 
	C821.679565,321.617950 813.579895,326.347473 804.520264,327.672028 
	C795.438660,328.999817 785.888855,329.146912 777.137756,324.123688 
	C766.220154,317.856903 760.516479,308.101440 759.252808,296.253876 
	C758.470764,288.922211 759.317993,281.019684 761.286926,273.884766 
	C764.240845,263.180206 775.776733,252.120255 788.688782,250.728943 
	C797.529602,249.776291 805.650635,250.281799 813.145752,254.710541 
	C822.696594,260.354004 828.274170,269.055328 829.968140,280.036987 
	C830.590576,284.072144 830.605530,288.201050 830.542297,292.602203 
M808.412476,281.978394 
	C810.870422,281.978394 813.328369,281.978394 815.666443,281.978394 
	C817.475586,273.758911 808.803833,262.866730 798.838501,262.091644 
	C784.929932,261.009857 775.581177,266.246399 773.467041,281.978394 
	C784.810120,281.978394 796.123352,281.978394 808.412476,281.978394 
z"/>
<path fill="#F47778" opacity="1.000000" stroke="none" 
	d="
M440.986908,311.497192 
	C441.430817,305.612457 439.135986,299.388580 444.063660,295.145081 
	C448.020355,291.737671 452.403900,288.050842 457.233795,286.590210 
	C468.043396,283.321228 479.249298,281.362854 490.681610,278.783234 
	C492.407806,271.624054 487.183685,263.760651 479.577820,261.230988 
	C471.019470,258.384552 462.814240,262.647888 457.682953,272.684296 
	C453.563904,271.337250 449.383698,269.970245 445.115784,268.574524 
	C448.920471,258.079956 456.295319,252.529510 467.329468,250.876282 
	C475.779846,249.610138 483.591614,250.084030 491.502411,253.660629 
	C498.615753,256.876678 502.187531,262.597687 502.827698,269.475220 
	C504.140289,283.577423 504.279846,297.786041 505.062836,311.941956 
	C505.332123,316.811035 506.079285,321.653656 506.634674,326.751892 
	C502.740631,326.751892 498.649506,326.751892 494.501923,326.751892 
	C493.592010,323.715302 492.675140,320.655334 491.730469,317.502686 
	C485.857422,324.986084 478.263947,328.278625 468.733673,328.138519 
	C461.759064,328.035950 454.636993,328.377258 449.244385,323.459808 
	C445.829407,320.345764 443.693298,315.829285 440.986908,311.497192 
M491.299255,299.730072 
	C491.561066,296.882751 491.822845,294.035431 492.163513,290.330475 
	C481.161255,293.083740 470.646423,292.441986 461.078705,297.725586 
	C457.116943,299.913361 455.422058,302.542786 455.145020,306.260254 
	C454.849060,310.232422 456.540955,314.000092 460.693176,315.051819 
	C465.209503,316.195831 469.955811,316.699066 474.626801,316.898865 
	C480.763275,317.161316 491.188080,309.947235 491.299255,299.730072 
z"/>
<path fill="#F47778" opacity="1.000000" stroke="none" 
	d="
M642.291504,266.830597 
	C637.530823,260.158356 630.674194,260.138428 624.336548,261.251343 
	C618.435669,262.287598 613.588318,265.947601 612.765137,273.058960 
	C608.439636,271.524384 604.381226,270.084503 600.012878,268.534729 
	C602.642944,259.139557 609.490112,254.042374 618.166992,251.458710 
	C625.943237,249.143234 633.926086,249.462982 641.832581,251.866165 
	C651.614075,254.839264 657.137329,261.233643 657.939148,273.071198 
	C658.665833,283.799713 658.505920,294.585785 659.085510,305.327667 
	C659.464294,312.346924 660.464844,319.332703 661.223938,326.692627 
	C657.098267,326.692627 653.346069,326.692627 649.332397,326.692627 
	C648.379944,324.003296 647.368408,321.147095 646.630859,319.064453 
	C641.675964,321.722565 636.743347,325.717346 631.171082,327.062225 
	C621.213867,329.465546 610.860413,329.493195 602.180176,322.623505 
	C592.036987,314.596039 590.187134,293.985107 609.986084,287.230957 
	C621.430908,283.326691 633.586792,281.506622 646.084595,278.594299 
	C645.073242,275.289246 643.820923,271.196655 642.291504,266.830597 
M643.476807,291.005646 
	C641.065735,291.345276 638.591797,291.448059 636.255432,292.068970 
	C629.281860,293.922363 622.273743,295.719086 615.452087,298.045258 
	C610.715088,299.660583 608.685547,304.161835 610.318726,308.360046 
	C611.629700,311.730072 615.003601,315.753052 618.248413,316.653748 
	C629.930969,319.896698 639.921875,315.253815 644.926819,304.068237 
	C646.516785,300.514709 644.667664,295.422363 643.476807,291.005646 
z"/>
<path fill="#F47778" opacity="1.000000" stroke="none" 
	d="
M1023.019897,261.999634 
	C1017.229370,279.535583 1011.534485,296.695190 1005.624817,313.780487 
	C1002.468384,322.906097 999.293701,332.055695 995.469604,340.910492 
	C992.447571,347.907990 985.822693,350.249359 978.736206,350.957275 
	C975.110352,351.319489 971.418518,351.020782 967.367676,351.020782 
	C967.367676,347.179840 967.367676,343.450623 967.367676,338.979889 
	C969.542053,338.979889 972.017883,338.645355 974.371460,339.039856 
	C982.941772,340.476318 989.619080,330.951050 986.654968,322.396484 
	C982.266663,309.731659 977.502014,297.197418 972.914307,284.601501 
	C968.904480,273.592255 964.917847,262.574615 960.793762,251.210068 
	C965.858154,251.210068 970.465515,251.210068 975.793335,251.210068 
	C981.632202,269.350555 987.578796,287.825684 993.796021,307.141571 
	C996.637146,298.773712 999.403076,291.042023 1001.882935,283.219604 
	C1005.050476,273.227905 1007.918457,263.140839 1011.131653,253.164474 
	C1011.446289,252.187637 1013.232971,251.167160 1014.404114,251.080215 
	C1018.037048,250.810547 1021.702698,250.981552 1026.654419,250.981552 
	C1025.320435,254.882660 1024.173340,258.237549 1023.019897,261.999634 
z"/>
<path fill="#F47778" opacity="1.000000" stroke="none" 
	d="
M527.229065,264.237335 
	C531.486572,257.322845 537.622681,253.592514 544.878174,251.579651 
	C555.600708,248.604919 565.848206,249.507812 575.186157,256.030640 
	C579.124329,258.781525 582.924500,261.729797 586.787415,264.588379 
	C586.189392,265.423920 585.591431,266.259460 584.993408,267.095001 
	C580.884827,268.783295 576.776306,270.471619 572.739441,272.130463 
	C565.754883,262.364899 557.440186,260.232178 548.358093,263.394440 
	C540.838623,266.012604 536.882202,272.130615 535.052185,279.648956 
	C533.227539,287.145355 534.026123,294.573029 536.016357,301.916443 
	C538.475952,310.991943 545.475403,315.602539 553.817749,316.603333 
	C560.134644,317.361115 566.488342,314.605804 571.062439,309.171051 
	C572.019104,308.034302 574.359558,307.190308 575.782288,307.499664 
	C578.714539,308.137238 581.457764,309.643829 584.988037,311.081726 
	C581.413696,316.967529 576.928650,321.542847 570.902832,324.610016 
	C557.598267,331.382141 538.445129,328.964935 529.006042,317.497009 
	C524.508972,312.033295 521.674805,305.836029 520.279602,298.809998 
	C517.810730,286.377014 519.720825,274.958527 527.229065,264.237335 
z"/>
<path fill="#FFFDFD" opacity="1.000000" stroke="none" 
	d="
M257.685913,94.951965 
	C260.333496,88.868088 264.935486,85.661774 270.011810,86.108063 
	C274.803345,86.529320 279.455322,90.294762 280.657501,94.724976 
	C282.220428,100.484848 280.156433,105.137253 274.822571,108.832764 
	C273.514984,109.738708 272.393799,111.422897 271.956238,112.967255 
	C271.101410,115.984711 270.704803,119.144135 270.269867,122.265877 
	C269.360168,128.794937 274.043243,133.525650 280.434082,132.123795 
	C284.465637,131.239456 288.360138,129.607483 292.187744,128.004364 
	C293.122406,127.612892 293.737915,126.091095 294.185059,124.964005 
	C296.938904,118.022156 303.894379,114.807930 310.389587,117.561333 
	C316.538116,120.167770 319.347931,127.274948 316.651947,133.401337 
	C313.808075,139.863846 306.581116,142.265396 299.873291,138.977005 
	C295.031525,136.603409 282.486237,141.102859 280.424042,146.044647 
	C278.479095,150.705521 280.262878,154.330612 283.649109,157.661743 
	C296.466156,170.270126 304.659637,185.535873 308.566711,202.985504 
	C318.689758,248.196930 293.859528,293.694092 250.302139,310.498413 
	C247.827957,311.452972 245.441330,313.654175 243.933853,315.894226 
	C240.154434,321.510406 233.172440,323.518829 227.344116,320.099487 
	C221.614594,316.738129 219.725525,309.119110 223.242157,303.555664 
	C226.867798,297.819763 234.384033,295.769073 239.759048,299.825470 
	C242.737717,302.073395 244.996109,301.794861 247.872040,300.534943 
	C279.251373,286.788025 297.404938,263.355286 300.189087,228.811554 
	C302.131042,204.717224 294.007660,184.081390 278.098328,166.233627 
	C275.367401,163.169937 272.247864,161.232422 267.984955,162.534515 
	C263.919373,163.776337 262.458191,166.980911 261.921967,170.856918 
	C261.627136,172.987854 261.331848,175.130600 260.828888,177.217911 
	C260.164734,179.974182 260.575958,182.036774 262.593842,184.413605 
	C267.143280,189.772293 265.728485,197.480743 260.004425,201.487793 
	C254.503052,205.338959 247.083038,203.961807 243.284714,198.384628 
	C239.484116,192.804138 240.916885,185.556702 246.586136,181.685104 
	C251.025772,178.653183 253.918320,166.022659 250.981995,161.567230 
	C250.031998,160.125748 248.484894,158.803314 246.910126,158.098969 
	C241.973038,155.890823 229.996078,160.917694 227.771378,165.910950 
	C224.857483,172.451035 217.908661,175.236115 211.638351,172.377029 
	C205.429886,169.546143 202.895096,162.047089 206.064316,155.886520 
	C209.149521,149.889267 216.465256,147.971008 222.926682,151.169235 
	C224.434570,151.915604 226.576157,152.092590 228.223007,151.693405 
	C231.274155,150.953827 234.232468,149.727097 237.127472,148.468689 
	C243.672287,145.623749 244.933395,138.896835 239.805222,133.989212 
	C237.284210,131.576614 234.597672,129.292831 231.748352,127.288673 
	C230.572708,126.461739 228.701035,126.044449 227.268951,126.259621 
	C219.995605,127.352409 213.695999,123.285789 212.937103,116.742561 
	C212.038055,108.990692 216.484421,103.254181 223.700638,102.855904 
	C231.178787,102.443184 236.705475,107.847336 236.787231,115.394188 
	C236.801849,116.742981 237.443695,118.443222 238.395660,119.355049 
	C241.033585,121.881775 243.845383,124.284653 246.849304,126.358696 
	C251.986618,129.905701 258.310486,127.634926 259.929077,121.646393 
	C260.922485,117.970886 261.586884,114.163666 261.915283,110.373672 
	C262.035278,108.988564 260.572815,107.533493 260.155060,106.021164 
	C259.177216,102.481010 258.394623,98.886909 257.685913,94.951965 
z"/>
<path fill="#FFFDFD" opacity="1.000000" stroke="none" 
	d="
M119.265594,167.286957 
	C131.095154,149.497635 146.799728,137.224655 166.489594,129.892990 
	C168.349228,129.200546 169.915985,127.098381 171.086639,125.303650 
	C173.842056,121.079315 178.901169,118.421677 183.362701,119.288078 
	C188.490097,120.283775 192.470749,124.159744 193.490128,129.149094 
	C194.405396,133.628906 191.964340,139.202652 187.745560,141.499069 
	C183.498840,143.810684 178.893005,144.039169 175.020279,141.070847 
	C172.262939,138.957413 170.066177,139.318237 167.331512,140.502960 
	C135.845657,154.143433 117.629936,177.640472 114.861732,212.137924 
	C112.920525,236.329300 120.889847,257.279114 137.353592,275.045654 
	C139.972580,277.871887 142.848297,280.018188 146.982407,278.608673 
	C151.141998,277.190399 152.787201,273.957947 153.202667,269.813477 
	C153.417816,267.667145 154.204376,265.535126 154.137207,263.415527 
	C154.070740,261.317627 153.807480,258.857971 152.669754,257.227356 
	C148.361786,251.053223 149.150604,243.652924 154.958191,239.579498 
	C160.459122,235.721191 167.810654,237.054092 171.701187,242.615173 
	C175.786560,248.454712 174.086655,255.654129 167.634857,259.836761 
	C162.759079,262.997681 161.006927,277.069366 165.350357,280.870331 
	C167.026688,282.337311 169.965942,283.515808 172.030685,283.147766 
	C176.555145,282.341278 180.942932,280.601471 185.255829,278.909576 
	C186.161621,278.554230 186.594101,276.803284 187.092789,275.630798 
	C189.773117,269.328888 194.983353,266.569885 201.602509,268.005463 
	C206.471558,269.061462 210.425812,274.109253 210.501297,279.365082 
	C210.582764,285.038971 206.403427,290.335968 200.432037,291.290741 
	C198.146973,291.656128 195.478302,291.051910 193.269608,290.172943 
	C188.402969,288.236328 176.436737,291.406586 173.656998,295.884613 
	C171.255188,299.753784 171.586075,303.588104 174.917786,306.781219 
	C177.556229,309.309937 180.350433,311.724243 183.335190,313.819305 
	C184.495483,314.633698 186.408508,314.798157 187.909927,314.633240 
	C195.725693,313.774750 201.517181,317.911713 202.184906,325.045654 
	C202.831573,331.954895 198.318436,337.653839 191.617249,338.389984 
	C184.912949,339.126465 179.053513,333.640320 178.200546,326.418976 
	C177.949310,324.291992 176.562668,322.034882 175.086670,320.381775 
	C173.113037,318.171295 170.685425,316.281036 168.203613,314.627167 
	C163.085556,311.216583 156.709427,313.539520 155.095886,319.460388 
	C154.095154,323.132507 153.436966,326.941559 153.110901,330.730927 
	C152.993057,332.100464 154.060593,333.763763 154.981827,334.998596 
	C159.542557,341.111847 158.690125,348.370209 152.779465,352.578430 
	C147.527145,356.317902 140.006622,355.174988 136.286850,350.071991 
	C132.066132,344.281799 133.508011,336.780396 139.642426,332.614532 
	C144.180862,329.532471 146.580750,316.181824 143.242859,311.911743 
	C142.355286,310.776306 141.076981,309.753754 139.759949,309.180450 
	C134.535660,306.906433 122.728218,311.886047 120.422745,317.194946 
	C117.808891,323.213928 110.579315,326.027344 104.489265,323.395508 
	C98.335434,320.736115 95.649826,313.147919 98.707901,307.060303 
	C101.681763,301.140320 108.858803,298.823730 114.909088,301.830963 
	C119.710831,304.217560 132.150696,300.299835 134.378204,295.415741 
	C136.283630,291.237885 135.411530,287.496155 131.987747,284.096497 
	C120.542770,272.732269 112.342407,259.318573 108.041107,243.742661 
	C100.599869,216.796417 104.297600,191.369568 119.265594,167.286957 
z"/>
<path fill="#000000" opacity="1.000000" stroke="none" 
	d="
M694.235474,309.567444 
	C687.742615,298.383636 687.547302,286.785492 691.153687,275.295227 
	C695.712280,260.771179 712.473206,257.924927 722.549866,266.600006 
	C726.012024,269.580566 727.311768,275.209564 729.269897,279.770142 
	C732.657410,287.659790 730.730286,295.562286 728.245789,303.137756 
	C723.385925,317.955994 705.187866,321.776398 694.235474,309.567444 
z"/>
<path fill="#000000" opacity="1.000000" stroke="none" 
	d="
M807.924561,281.978394 
	C796.123352,281.978394 784.810120,281.978394 773.467041,281.978394 
	C775.581177,266.246399 784.929932,261.009857 798.838501,262.091644 
	C808.803833,262.866730 817.475586,273.758911 815.666443,281.978394 
	C813.328369,281.978394 810.870422,281.978394 807.924561,281.978394 
z"/>
<path fill="#000000" opacity="1.000000" stroke="none" 
	d="
M491.161682,300.142395 
	C491.188080,309.947235 480.763275,317.161316 474.626801,316.898865 
	C469.955811,316.699066 465.209503,316.195831 460.693176,315.051819 
	C456.540955,314.000092 454.849060,310.232422 455.145020,306.260254 
	C455.422058,302.542786 457.116943,299.913361 461.078705,297.725586 
	C470.646423,292.441986 481.161255,293.083740 492.163513,290.330475 
	C491.822845,294.035431 491.561066,296.882751 491.161682,300.142395 
z"/>
<path fill="#000000" opacity="1.000000" stroke="none" 
	d="
M643.934570,291.019928 
	C644.667664,295.422363 646.516785,300.514709 644.926819,304.068237 
	C639.921875,315.253815 629.930969,319.896698 618.248413,316.653748 
	C615.003601,315.753052 611.629700,311.730072 610.318726,308.360046 
	C608.685547,304.161835 610.715088,299.660583 615.452087,298.045258 
	C622.273743,295.719086 629.281860,293.922363 636.255432,292.068970 
	C638.591797,291.448059 641.065735,291.345276 643.934570,291.019928 
z"/>
</svg>